<svg width="32" height="32" viewBox="0 0 32 32" xmlns="http://www.w3.org/2000/svg">
  <defs>
    <!-- Red block gradient -->
    <linearGradient id="redGradient" x1="0%" y1="0%" x2="100%" y2="100%">
      <stop offset="0%" style="stop-color:#FF6666;stop-opacity:1" />
      <stop offset="100%" style="stop-color:#CC0000;stop-opacity:1" />
    </linearGradient>
    
    <!-- Cyan block gradient -->
    <linearGradient id="cyanGradient" x1="0%" y1="0%" x2="100%" y2="100%">
      <stop offset="0%" style="stop-color:#66FFFF;stop-opacity:1" />
      <stop offset="100%" style="stop-color:#00CCCC;stop-opacity:1" />
    </linearGradient>
  </defs>
  
  <!-- Background -->
  <rect width="32" height="32" fill="#2c3e50"/>
  
  <!-- Red block (left, slightly overlapping) -->
  <rect x="2" y="8" width="14" height="16" fill="url(#redGradient)" stroke="#990000" stroke-width="0.5"/>
  <!-- Red block 3D effect -->
  <rect x="2" y="8" width="14" height="2" fill="#FF9999"/>
  <rect x="2" y="8" width="2" height="16" fill="#FF9999"/>
  <rect x="2" y="22" width="14" height="2" fill="#990000"/>
  <rect x="14" y="8" width="2" height="16" fill="#990000"/>
  
  <!-- Cyan block (right, slightly overlapping) -->
  <rect x="16" y="8" width="14" height="16" fill="url(#cyanGradient)" stroke="#006666" stroke-width="0.5"/>
  <!-- Cyan block 3D effect -->
  <rect x="16" y="8" width="14" height="2" fill="#99FFFF"/>
  <rect x="16" y="8" width="2" height="16" fill="#99FFFF"/>
  <rect x="16" y="22" width="14" height="2" fill="#006666"/>
  <rect x="28" y="8" width="2" height="16" fill="#006666"/>
  
  <!-- Cursor/selector (two black outlined rectangles) -->
  <rect x="8" y="4" width="8" height="12" fill="none" stroke="black" stroke-width="2"/>
  <rect x="16" y="4" width="8" height="12" fill="none" stroke="black" stroke-width="2"/>
</svg>